<svg width="52" height="52" viewBox="0 0 4096 4096" fill="none" xmlns="http://www.w3.org/2000/svg">
<rect width="4096" height="4096" rx="30" fill="white"/>
<path d="M3224.37 1723.44C3235.39 1731.2 3248.55 1735.35 3262.03 1735.31C3275.51 1735.28 3288.64 1731.06 3299.62 1723.25C3310.75 1715.13 3319.19 1703.88 3323.81 1690.88L3351.75 1605.06C3358.9 1583.54 3370.97 1563.99 3386.99 1547.94C3403.01 1531.9 3422.55 1519.81 3444.06 1512.63L3531 1484.5C3543.85 1479.85 3554.92 1471.28 3562.65 1460C3570.37 1448.72 3574.37 1435.3 3574.06 1421.64C3573.76 1407.97 3569.17 1394.74 3560.95 1383.82C3552.74 1372.9 3541.3 1364.83 3528.25 1360.75L3442.31 1332.75C3420.78 1325.61 3401.21 1313.55 3385.15 1297.53C3369.09 1281.5 3356.99 1261.96 3349.81 1240.44L3321.56 1153.69C3317.01 1140.91 3308.59 1129.86 3297.48 1122.09C3286.36 1114.32 3273.09 1110.2 3259.53 1110.32C3245.96 1110.44 3232.77 1114.78 3221.79 1122.74C3210.81 1130.71 3202.58 1141.89 3198.25 1154.75L3169.69 1242.25C3162.53 1263.19 3150.71 1282.23 3135.12 1297.93C3119.53 1313.63 3100.57 1325.58 3079.69 1332.88L2992.81 1360.81C2980.04 1365.37 2969 1373.79 2961.23 1384.91C2953.46 1396.03 2949.34 1409.29 2949.45 1422.86C2949.56 1436.42 2953.89 1449.61 2961.84 1460.6C2969.79 1471.59 2980.96 1479.84 2993.81 1484.19L3079.69 1512C3101.31 1519.19 3120.95 1531.35 3137.02 1547.5C3153.09 1563.65 3165.16 1583.34 3172.25 1605L3200.5 1691.94C3205 1704.69 3213.37 1715.69 3224.37 1723.44ZM3229.69 1260L3262.62 1173.94L3290.12 1260C3300.35 1290.82 3317.64 1318.81 3340.61 1341.75C3363.59 1364.69 3391.61 1381.94 3422.44 1392.13L3510.31 1425.25L3423.94 1453.19C3393.14 1463.46 3365.16 1480.76 3342.21 1503.73C3319.27 1526.69 3301.99 1554.69 3291.75 1585.5L3259.06 1671.63L3231 1585.5C3220.92 1554.69 3203.8 1526.66 3181 1503.63C3157.95 1480.6 3129.89 1463.23 3099 1452.88L3012.87 1420.25L3099.5 1392.13C3129.92 1381.59 3157.5 1364.21 3180.12 1341.31C3202.58 1318.32 3219.52 1290.48 3229.69 1260ZM3607.94 1976.06C3614.33 1980.56 3621.68 1983.5 3629.41 1984.67C3637.14 1985.83 3645.03 1985.18 3652.46 1982.77C3659.9 1980.35 3666.67 1976.24 3672.24 1970.76C3677.81 1965.28 3682.03 1958.58 3684.56 1951.19L3700.06 1903.56C3703.37 1893.69 3709 1884.69 3716.31 1877.31C3723.69 1869.81 3732.69 1864.31 3742.56 1861.06L3790.81 1845.31C3800.77 1841.88 3809.39 1835.38 3815.43 1826.76C3821.48 1818.14 3824.65 1807.82 3824.49 1797.29C3824.33 1786.76 3820.85 1776.55 3814.55 1768.11C3808.24 1759.68 3799.43 1753.45 3789.37 1750.31L3741.62 1734.69C3731.74 1731.4 3722.76 1725.86 3715.38 1718.51C3708 1711.16 3702.44 1702.19 3699.12 1692.31L3683.37 1644C3679.99 1634.06 3673.57 1625.44 3665.01 1619.36C3656.46 1613.28 3646.21 1610.04 3635.71 1610.11C3625.22 1610.18 3615.01 1613.55 3606.53 1619.75C3598.06 1625.94 3591.75 1634.64 3588.5 1644.63L3573.06 1692.25C3569.88 1702.05 3564.47 1710.98 3557.26 1718.35C3550.05 1725.71 3541.23 1731.3 3531.5 1734.69L3483.19 1750.44C3473.25 1753.81 3464.62 1760.22 3458.52 1768.77C3452.43 1777.31 3449.18 1787.56 3449.24 1798.06C3449.29 1808.55 3452.65 1818.76 3458.83 1827.25C3465.02 1835.73 3473.71 1842.05 3483.69 1845.31L3531.37 1860.75C3541.37 1864.13 3550.37 1869.69 3557.75 1877.06C3565.19 1884.5 3570.69 1893.5 3573.87 1903.44L3589.69 1951.81C3593.11 1961.59 3599.49 1970.07 3607.94 1976.06ZM3550.87 1801.5L3539.69 1797.81L3551.19 1793.81C3570.14 1787.25 3587.32 1776.41 3601.41 1762.13C3615.5 1747.86 3626.12 1730.54 3632.44 1711.5L3636.06 1700.38L3639.81 1711.69C3646.18 1730.85 3656.94 1748.26 3671.21 1762.54C3685.49 1776.81 3702.9 1787.57 3722.06 1793.94L3734.25 1797.88L3723 1801.63C3703.8 1808.01 3686.35 1818.79 3672.06 1833.11C3657.77 1847.44 3647.02 1864.91 3640.69 1884.13L3637 1895.5L3633.37 1884.25C3627.05 1864.98 3616.29 1847.45 3601.96 1833.09C3587.63 1818.73 3570.13 1807.93 3550.87 1801.56V1801.5Z" fill="#0F0F0F"/>
<path d="M2112.28 3405.2C1324.12 3405.2 682.95 2763.97 682.95 1975.87C682.844 1880.18 692.321 1784.73 711.24 1690.93L641.76 1676.78C621.956 1775.24 612.005 1875.43 612.055 1975.87C612.055 2172.87 650.861 2367.94 726.258 2549.94C801.655 2731.94 912.166 2897.3 1051.48 3036.59C1190.79 3175.87 1356.18 3286.35 1538.19 3361.71C1720.2 3437.08 1915.28 3475.85 2112.28 3475.81C2166.62 3475.79 2220.92 3472.87 2274.95 3467.04L2267.25 3396.77C2215.79 3402.38 2164.05 3405.19 2112.28 3405.2Z" fill="#0F0F0F" stroke="#0F0F0F" stroke-width="6" stroke-miterlimit="10"/>
<path d="M2112.28 546.595C2289.22 546.443 2464.65 579.313 2629.53 643.517L2655.33 576.922C2386.29 473.027 2093.03 448.724 1810.55 506.912C1528.07 565.099 1268.29 703.321 1062.2 905.087L1112.11 956.01C1378.77 693.452 1738.05 546.383 2112.28 546.595Z" fill="#0F0F0F" stroke="#0F0F0F" stroke-width="6" stroke-miterlimit="10"/>
<path d="M2112.28 787.796C2325.67 787.603 2535.12 845.245 2718.37 954.595L2754.47 893.884C2560.3 778.047 2338.38 716.983 2112.28 717.184C1455.95 717.184 915.72 1221.88 858.688 1863.5L929.017 1869.78C982.542 1264.2 1492.67 787.796 2112.28 787.796Z" fill="#0F0F0F" stroke="#0F0F0F" stroke-width="6" stroke-miterlimit="10"/>
<path d="M2112.26 3163.88C1521.17 3163.88 1029.77 2730.59 939.013 2164.79L869.25 2176.11C965.436 2775.4 1485.98 3234.72 2111.98 3234.72C2301.24 3234.9 2488.08 3192.15 2658.43 3109.68L2627.77 3046.03C2467.05 3123.78 2290.8 3164.07 2112.26 3163.88Z" fill="#0F0F0F" stroke="#0F0F0F" stroke-width="6" stroke-miterlimit="10"/>
<path d="M3057.84 2016.15C3036.63 2519.72 2620.53 2922.57 2111.99 2922.57C1982.75 2922.7 1854.86 2896.22 1736.3 2844.77L1708.01 2909.61C1835.58 2964.98 1973.2 2993.44 2112.27 2993.24C2659.74 2993.24 3107.52 2558.53 3128.8 2016.15H3057.84Z" fill="#0F0F0F" stroke="#0F0F0F" stroke-width="6" stroke-miterlimit="10"/>
<path d="M2112.28 1029.11V958.496C1551.29 958.496 1094.91 1414.87 1094.91 1975.87C1094.75 2121.53 1126.06 2265.51 1186.69 2397.95L1250.68 2368.48C1194.24 2245.23 1165.1 2111.25 1165.24 1975.7C1165.24 1453.8 1589.99 1029.11 2112.28 1029.11Z" fill="#0F0F0F" stroke="#0F0F0F" stroke-width="6" stroke-miterlimit="10"/>
<path d="M2112.27 1270.42C2220.3 1270.43 2326.89 1295.27 2423.79 1343.03C2520.69 1390.79 2605.31 1460.18 2671.12 1545.86H2758.02C2687.2 1439.47 2591.2 1352.21 2478.55 1291.84C2365.9 1231.48 2240.08 1199.86 2112.27 1199.81C1684.36 1199.81 1336.22 1547.95 1336.22 1975.87C1336.22 2403.78 1684.07 2751.92 2112.27 2751.92C2526.67 2751.92 2866.26 2425.4 2887.42 2016.38H2359.25V2086.99H2808.66C2755.31 2423.25 2463.07 2681.31 2112.27 2681.31C1925.18 2681.31 1745.75 2606.99 1613.45 2474.69C1481.15 2342.39 1406.83 2162.96 1406.83 1975.87C1406.83 1788.77 1481.15 1609.34 1613.45 1477.04C1745.75 1344.75 1925.18 1270.42 2112.27 1270.42Z" fill="#0F0F0F" stroke="#0F0F0F" stroke-width="6" stroke-miterlimit="10"/>
</svg>
